<?xml version="1.0" encoding="UTF-8" standalone="no"?>
<svg
   xmlns:dc="http://purl.org/dc/elements/1.1/"
   xmlns:cc="http://creativecommons.org/ns#"
   xmlns:rdf="http://www.w3.org/1999/02/22-rdf-syntax-ns#"
   xmlns:svg="http://www.w3.org/2000/svg"
   xmlns="http://www.w3.org/2000/svg"
   viewBox="0 0 384 240"
   height="240"
   width="384"
   xml:space="preserve"
   id="svg2"
   version="1.1"><metadata
     id="metadata8"><rdf:RDF><cc:Work
         rdf:about=""><dc:format>image/svg+xml</dc:format><dc:type
           rdf:resource="http://purl.org/dc/dcmitype/StillImage" /></cc:Work></rdf:RDF></metadata><defs
     id="defs6"><clipPath
       id="clipPath24"
       clipPathUnits="userSpaceOnUse"><path
         style="clip-rule:evenodd"
         id="path22"
         d="M 4.292e-6,0 H 288 V 180 H 4.292e-6 Z" /></clipPath><clipPath
       id="clipPath36"
       clipPathUnits="userSpaceOnUse"><path
         style="clip-rule:evenodd"
         id="path34"
         d="M 0,180 H 288 V 0 L 0,1.5259e-5" /></clipPath><clipPath
       id="clipPath48"
       clipPathUnits="userSpaceOnUse"><path
         style="clip-rule:evenodd"
         id="path46"
         d="M 7.629e-6,180 H 288 V 6.1035e-5 L 1.1444e-5,4.5776e-5" /></clipPath><clipPath
       id="clipPath58"
       clipPathUnits="userSpaceOnUse"><path
         style="clip-rule:evenodd"
         id="path56"
         d="M 4.292e-6,0 H 288 V 180 H 4.292e-6 Z" /></clipPath><clipPath
       id="clipPath70"
       clipPathUnits="userSpaceOnUse"><path
         style="clip-rule:evenodd"
         id="path68"
         d="M 4.292e-6,0 H 288 V 180 H 4.292e-6 Z" /></clipPath><clipPath
       id="clipPath82"
       clipPathUnits="userSpaceOnUse"><path
         style="clip-rule:evenodd"
         id="path80"
         d="M 4.292e-6,0 H 288 V 180 H 4.292e-6 Z" /></clipPath><clipPath
       id="clipPath94"
       clipPathUnits="userSpaceOnUse"><path
         style="clip-rule:evenodd"
         id="path92"
         d="M 4.292e-6,0 H 288 V 180 H 4.292e-6 Z" /></clipPath><clipPath
       id="clipPath106"
       clipPathUnits="userSpaceOnUse"><path
         style="clip-rule:evenodd"
         id="path104"
         d="M 4.292e-6,0 H 288 V 180 H 4.292e-6 Z" /></clipPath><clipPath
       id="clipPath118"
       clipPathUnits="userSpaceOnUse"><path
         style="clip-rule:evenodd"
         id="path116"
         d="M 4.292e-6,0 H 288 V 180 H 4.292e-6 Z" /></clipPath><clipPath
       id="clipPath130"
       clipPathUnits="userSpaceOnUse"><path
         style="clip-rule:evenodd"
         id="path128"
         d="M 4.292e-6,0 H 288 V 180 H 4.292e-6 Z" /></clipPath><clipPath
       id="clipPath142"
       clipPathUnits="userSpaceOnUse"><path
         style="clip-rule:evenodd"
         id="path140"
         d="M 4.292e-6,0 H 288 V 180 H 4.292e-6 Z" /></clipPath><clipPath
       id="clipPath154"
       clipPathUnits="userSpaceOnUse"><path
         style="clip-rule:evenodd"
         id="path152"
         d="M 4.292e-6,0 H 288 V 180 H 4.292e-6 Z" /></clipPath><clipPath
       id="clipPath166"
       clipPathUnits="userSpaceOnUse"><path
         style="clip-rule:evenodd"
         id="path164"
         d="M 4.292e-6,0 H 288 V 180 H 4.292e-6 Z" /></clipPath><clipPath
       id="clipPath178"
       clipPathUnits="userSpaceOnUse"><path
         style="clip-rule:evenodd"
         id="path176"
         d="M 4.292e-6,0 H 288 V 180 H 4.292e-6 Z" /></clipPath><clipPath
       id="clipPath194"
       clipPathUnits="userSpaceOnUse"><path
         style="clip-rule:evenodd"
         id="path192"
         d="M 4.292e-6,0 H 288 V 180 H 4.292e-6 Z" /></clipPath><clipPath
       id="clipPath210"
       clipPathUnits="userSpaceOnUse"><path
         style="clip-rule:evenodd"
         id="path208"
         d="M 4.292e-6,0 H 288 V 180 H 4.292e-6 Z" /></clipPath><clipPath
       id="clipPath222"
       clipPathUnits="userSpaceOnUse"><path
         style="clip-rule:evenodd"
         id="path220"
         d="M 1.5259e-5,180 H 288 V 4.5776e-5 H 2.2888e-5" /></clipPath><clipPath
       id="clipPath232"
       clipPathUnits="userSpaceOnUse"><path
         style="clip-rule:evenodd"
         id="path230"
         d="M 1.5259e-5,180 H 288 V 4.5776e-5 H 2.2888e-5" /></clipPath><clipPath
       id="clipPath242"
       clipPathUnits="userSpaceOnUse"><path
         style="clip-rule:evenodd"
         id="path240"
         d="M 0,180 H 288 V 6.1035e-5 H 1.5259e-5" /></clipPath><clipPath
       id="clipPath252"
       clipPathUnits="userSpaceOnUse"><path
         style="clip-rule:evenodd"
         id="path250"
         d="M 0,180 H 288 V 6.1035e-5 H 1.5259e-5" /></clipPath><clipPath
       id="clipPath262"
       clipPathUnits="userSpaceOnUse"><path
         style="clip-rule:evenodd"
         id="path260"
         d="M 0,180 H 288 V 7.6294e-5 L 1.5259e-5,6.1035e-5" /></clipPath><clipPath
       id="clipPath272"
       clipPathUnits="userSpaceOnUse"><path
         style="clip-rule:evenodd"
         id="path270"
         d="M 0,180 H 288 V 7.6294e-5 L 1.5259e-5,6.1035e-5" /></clipPath><clipPath
       id="clipPath284"
       clipPathUnits="userSpaceOnUse"><path
         style="clip-rule:evenodd"
         id="path282"
         d="M 1.5259e-5,180 H 288 V 6.1035e-5 L 3.0518e-5,4.5776e-5" /></clipPath><clipPath
       id="clipPath298"
       clipPathUnits="userSpaceOnUse"><path
         style="clip-rule:evenodd"
         id="path296"
         d="M -1.5259e-5,180 H 288 V 3.0518e-5 H -1.5259e-5" /></clipPath><clipPath
       id="clipPath308"
       clipPathUnits="userSpaceOnUse"><path
         style="clip-rule:evenodd"
         id="path306"
         d="M 4.292e-6,0 H 288 V 180 H 4.292e-6 Z" /></clipPath><clipPath
       id="clipPath320"
       clipPathUnits="userSpaceOnUse"><path
         style="clip-rule:evenodd"
         id="path318"
         d="M 4.292e-6,0 H 288 V 180 H 4.292e-6 Z" /></clipPath><clipPath
       id="clipPath332"
       clipPathUnits="userSpaceOnUse"><path
         style="clip-rule:evenodd"
         id="path330"
         d="M -4.5776e-5,180 H 288 V 0 L -3.0518e-5,1.5259e-5" /></clipPath><clipPath
       id="clipPath342"
       clipPathUnits="userSpaceOnUse"><path
         style="clip-rule:evenodd"
         id="path340"
         d="M -4.5776e-5,180 H 288 V 0 L -3.0518e-5,1.5259e-5" /></clipPath><clipPath
       id="clipPath356"
       clipPathUnits="userSpaceOnUse"><path
         style="clip-rule:evenodd"
         id="path354"
         d="M 1.5259e-5,180 H 288 V 6.1035e-5 H 3.0518e-5" /></clipPath><clipPath
       id="clipPath366"
       clipPathUnits="userSpaceOnUse"><path
         style="clip-rule:evenodd"
         id="path364"
         d="M 4.292e-6,0 H 288 V 180 H 4.292e-6 Z" /></clipPath><clipPath
       id="clipPath378"
       clipPathUnits="userSpaceOnUse"><path
         style="clip-rule:evenodd"
         id="path376"
         d="M 4.292e-6,0 H 288 V 180 H 4.292e-6 Z" /></clipPath><clipPath
       id="clipPath392"
       clipPathUnits="userSpaceOnUse"><path
         style="clip-rule:evenodd"
         id="path390"
         d="M -7.629e-6,180 H 288 V -1.5259e-5 L -7.629e-6,0" /></clipPath><clipPath
       id="clipPath406"
       clipPathUnits="userSpaceOnUse"><path
         style="clip-rule:evenodd"
         id="path404"
         d="M 4.292e-6,0 H 288 V 180 H 4.292e-6 Z" /></clipPath><clipPath
       id="clipPath418"
       clipPathUnits="userSpaceOnUse"><path
         style="clip-rule:evenodd"
         id="path416"
         d="M 4.292e-6,0 H 288 V 180 H 4.292e-6 Z" /></clipPath></defs><g
     transform="matrix(1.3333333,0,0,-1.3333333,0,240)"
     id="g10"><path
       id="path12"
       style="fill:none;stroke:#000000;stroke-width:0.47999999;stroke-linecap:butt;stroke-linejoin:miter;stroke-miterlimit:10;stroke-dasharray:none;stroke-opacity:1"
       d="m 137.04,16.462 h 87.78 V 78.96 h 1.16" /><path
       id="path14"
       style="fill:#a1c1da;fill-opacity:0.90196001;fill-rule:evenodd;stroke:none"
       d="m 111,37.44 h 52.32 V 80.4 H 111 Z" /><path
       id="path16"
       style="fill:none;stroke:#000000;stroke-width:0.95999998;stroke-linecap:butt;stroke-linejoin:miter;stroke-miterlimit:10;stroke-dasharray:none;stroke-opacity:1"
       d="m 111,37.44 h 52.32 V 80.4 H 111 Z" /><g
       id="g18"><g
         clip-path="url(#clipPath24)"
         id="g20"><text
           id="text28"
           style="font-style:italic;font-variant:normal;font-weight:normal;font-size:18.02400017px;font-family:Calibri;-inkscape-font-specification:Calibri-Italic;writing-mode:lr-tb;fill:#000000;fill-opacity:1;fill-rule:nonzero;stroke:none"
           transform="matrix(1,0,0,-1,132.53,52.848)"><tspan
             id="tspan26"
             y="0"
             x="0">n</tspan></text>
</g></g><g
       id="g30"><g
         clip-path="url(#clipPath36)"
         id="g32"><path
           id="path38"
           style="fill:none;stroke:#000000;stroke-width:1.55999994;stroke-linecap:butt;stroke-linejoin:miter;stroke-miterlimit:10;stroke-dasharray:none;stroke-opacity:1"
           d="m 222.54,81.939 4.97,0.081" /></g></g><path
       id="path40"
       style="fill:none;stroke:#000000;stroke-width:0.47999999;stroke-linecap:butt;stroke-linejoin:miter;stroke-miterlimit:10;stroke-dasharray:none;stroke-opacity:1"
       d="m 225.98,82.027 h -1.16 v 87.533 h -87.78" /><g
       id="g42"><g
         clip-path="url(#clipPath48)"
         id="g44"><path
           id="path50"
           style="fill:none;stroke:#000000;stroke-width:0.47999999;stroke-linecap:butt;stroke-linejoin:miter;stroke-miterlimit:10;stroke-dasharray:none;stroke-opacity:1"
           d="M 62.777,61.44 H 49.8" /></g></g><g
       id="g52"><g
         clip-path="url(#clipPath58)"
         id="g54"><text
           id="text62"
           style="font-style:italic;font-variant:normal;font-weight:normal;font-size:11.03999996px;font-family:Calibri;-inkscape-font-specification:Calibri-Italic;writing-mode:lr-tb;fill:#000000;fill-opacity:1;fill-rule:nonzero;stroke:none"
           transform="matrix(1,0,0,-1,128.21,19.248)"><tspan
             id="tspan60"
             y="0"
             x="0">I</tspan></text>
</g></g><g
       id="g64"><g
         clip-path="url(#clipPath70)"
         id="g66"><text
           id="text74"
           style="font-style:italic;font-variant:normal;font-weight:normal;font-size:4.55999994px;font-family:Calibri;-inkscape-font-specification:Calibri-Italic;writing-mode:lr-tb;fill:#000000;fill-opacity:1;fill-rule:nonzero;stroke:none"
           transform="matrix(1,0,0,-1,130.97,19.248)"><tspan
             id="tspan72"
             y="0"
             x="0">C</tspan></text>
</g></g><g
       id="g76"><g
         clip-path="url(#clipPath82)"
         id="g78"><text
           id="text86"
           style="font-style:italic;font-variant:normal;font-weight:normal;font-size:11.03999996px;font-family:Calibri;-inkscape-font-specification:Calibri-Italic;writing-mode:lr-tb;fill:#000000;fill-opacity:1;fill-rule:nonzero;stroke:none"
           transform="matrix(1,0,0,-1,92.52,100.56)"><tspan
             id="tspan84"
             y="0"
             x="0">I</tspan></text>
</g></g><g
       id="g88"><g
         clip-path="url(#clipPath94)"
         id="g90"><text
           id="text98"
           style="font-style:italic;font-variant:normal;font-weight:normal;font-size:4.55999994px;font-family:Calibri;-inkscape-font-specification:Calibri-Italic;writing-mode:lr-tb;fill:#000000;fill-opacity:1;fill-rule:nonzero;stroke:none"
           transform="matrix(1,0,0,-1,95.28,100.56)"><tspan
             id="tspan96"
             y="0"
             x="0">B</tspan></text>
</g></g><g
       id="g100"><g
         clip-path="url(#clipPath106)"
         id="g102"><text
           id="text110"
           style="font-variant:normal;font-weight:normal;font-size:8.03999996px;font-family:ArialMT;-inkscape-font-specification:ArialMT;writing-mode:lr-tb;fill:#000000;fill-opacity:1;fill-rule:nonzero;stroke:none"
           transform="matrix(1,0,0,-1,63.624,60.6)"><tspan
             id="tspan108"
             y="0"
             x="0">+</tspan></text>
</g></g><g
       id="g112"><g
         clip-path="url(#clipPath118)"
         id="g114"><text
           id="text122"
           style="font-variant:normal;font-weight:normal;font-size:8.03999996px;font-family:ArialMT;-inkscape-font-specification:ArialMT;writing-mode:lr-tb;fill:#000000;fill-opacity:1;fill-rule:nonzero;stroke:none"
           transform="matrix(1,0,0,-1,64.608,54.384)"><tspan
             id="tspan120"
             y="0"
             x="0">-</tspan></text>
</g></g><g
       id="g124"><g
         clip-path="url(#clipPath130)"
         id="g126"><text
           id="text134"
           style="font-style:italic;font-variant:normal;font-weight:normal;font-size:11.06400013px;font-family:Calibri;-inkscape-font-specification:Calibri-Italic;writing-mode:lr-tb;fill:#000000;fill-opacity:1;fill-rule:nonzero;stroke:none"
           transform="matrix(1,0,0,-1,126.29,152.47)"><tspan
             id="tspan132"
             y="0"
             x="0">I</tspan></text>
</g></g><g
       id="g136"><g
         clip-path="url(#clipPath142)"
         id="g138"><text
           id="text146"
           style="font-style:italic;font-variant:normal;font-weight:normal;font-size:4.58400011px;font-family:Calibri;-inkscape-font-specification:Calibri-Italic;writing-mode:lr-tb;fill:#000000;fill-opacity:1;fill-rule:nonzero;stroke:none"
           transform="matrix(1,0,0,-1,129.05,152.47)"><tspan
             id="tspan144"
             y="0"
             x="0">E</tspan></text>
</g></g><g
       id="g148"><g
         clip-path="url(#clipPath154)"
         id="g150"><text
           id="text158"
           style="font-style:italic;font-variant:normal;font-weight:normal;font-size:11.03999996px;font-family:Calibri;-inkscape-font-specification:Calibri-Italic;writing-mode:lr-tb;fill:#000000;fill-opacity:1;fill-rule:nonzero;stroke:none"
           transform="matrix(1,0,0,-1,140.9,150.98)"><tspan
             id="tspan156"
             y="0"
             x="0">E</tspan></text>
</g></g><g
       id="g160"><g
         clip-path="url(#clipPath166)"
         id="g162"><text
           id="text170"
           style="font-style:italic;font-variant:normal;font-weight:normal;font-size:11.03999996px;font-family:Calibri;-inkscape-font-specification:Calibri-Italic;writing-mode:lr-tb;fill:#000000;fill-opacity:1;fill-rule:nonzero;stroke:none"
           transform="matrix(1,0,0,-1,141.46,25.68)"><tspan
             id="tspan168"
             y="0"
             x="0">C</tspan></text>
</g></g><g
       id="g172"><g
         clip-path="url(#clipPath178)"
         id="g174"><text
           id="text182"
           style="font-style:italic;font-variant:normal;font-weight:normal;font-size:11.03999996px;font-family:Calibri;-inkscape-font-specification:Calibri-Italic;writing-mode:lr-tb;fill:#000000;fill-opacity:1;fill-rule:nonzero;stroke:none"
           transform="matrix(1,0,0,-1,100.37,79.968)"><tspan
             id="tspan180"
             y="0"
             x="0">B</tspan></text>
</g></g><path
       id="path184"
       style="fill:#a1c1da;fill-opacity:0.90196001;fill-rule:evenodd;stroke:none"
       d="m 110.88,104.52 h 52.32 v 42.96 h -52.32 z" /><path
       id="path186"
       style="fill:none;stroke:#000000;stroke-width:0.95999998;stroke-linecap:butt;stroke-linejoin:miter;stroke-miterlimit:10;stroke-dasharray:none;stroke-opacity:1"
       d="m 110.88,104.52 h 52.32 v 42.96 h -52.32 z" /><g
       id="g188"><g
         clip-path="url(#clipPath194)"
         id="g190"><text
           id="text198"
           style="font-style:italic;font-variant:normal;font-weight:normal;font-size:18px;font-family:Calibri;-inkscape-font-specification:Calibri-Italic;writing-mode:lr-tb;fill:#000000;fill-opacity:1;fill-rule:nonzero;stroke:none"
           transform="matrix(1,0,0,-1,132.46,120)"><tspan
             id="tspan196"
             y="0"
             x="0">n</tspan></text>
</g></g><path
       id="path200"
       style="fill:#96e796;fill-opacity:0.89803999;fill-rule:evenodd;stroke:none"
       d="m 110.88,80.04 h 52.32 v 24.24 h -52.32 z" /><path
       id="path202"
       style="fill:none;stroke:#000000;stroke-width:0.95999998;stroke-linecap:butt;stroke-linejoin:miter;stroke-miterlimit:10;stroke-dasharray:none;stroke-opacity:1"
       d="m 110.88,80.04 h 52.32 v 24.24 h -52.32 z" /><g
       id="g204"><g
         clip-path="url(#clipPath210)"
         id="g206"><text
           id="text214"
           style="font-style:italic;font-variant:normal;font-weight:normal;font-size:18px;font-family:Calibri;-inkscape-font-specification:Calibri-Italic;writing-mode:lr-tb;fill:#000000;fill-opacity:1;fill-rule:nonzero;stroke:none"
           transform="matrix(1,0,0,-1,132.43,86.088)"><tspan
             id="tspan212"
             y="0"
             x="0">p</tspan></text>
</g></g><g
       id="g216"><g
         clip-path="url(#clipPath222)"
         id="g218"><path
           id="path224"
           style="fill:#ffffff;fill-opacity:1;fill-rule:evenodd;stroke:none"
           d="m 110.94,92.88 c 0.5,0 0.9,-0.403 0.9,-0.9 0,-0.497 -0.4,-0.9 -0.9,-0.9 -0.5,0 -0.9,0.403 -0.9,0.9 0,0.497 0.4,0.9 0.9,0.9 z" /></g></g><g
       id="g226"><g
         clip-path="url(#clipPath232)"
         id="g228"><path
           id="path234"
           style="fill:none;stroke:#000000;stroke-width:0.47999999;stroke-linecap:butt;stroke-linejoin:miter;stroke-miterlimit:10;stroke-dasharray:none;stroke-opacity:1"
           d="m 110.94,92.88 c 0.5,0 0.9,-0.403 0.9,-0.9 0,-0.497 -0.4,-0.9 -0.9,-0.9 -0.5,0 -0.9,0.403 -0.9,0.9 0,0.497 0.4,0.9 0.9,0.9 z" /></g></g><g
       id="g236"><g
         clip-path="url(#clipPath242)"
         id="g238"><path
           id="path244"
           style="fill:#ffffff;fill-opacity:1;fill-rule:evenodd;stroke:none"
           d="m 137.1,37.92 c 0.5,0 0.9,-0.403 0.9,-0.9 0,-0.497 -0.4,-0.9 -0.9,-0.9 -0.5,0 -0.9,0.403 -0.9,0.9 0,0.497 0.4,0.9 0.9,0.9 z" /></g></g><g
       id="g246"><g
         clip-path="url(#clipPath252)"
         id="g248"><path
           id="path254"
           style="fill:none;stroke:#000000;stroke-width:0.47999999;stroke-linecap:butt;stroke-linejoin:miter;stroke-miterlimit:10;stroke-dasharray:none;stroke-opacity:1"
           d="m 137.1,37.92 c 0.5,0 0.9,-0.403 0.9,-0.9 0,-0.497 -0.4,-0.9 -0.9,-0.9 -0.5,0 -0.9,0.403 -0.9,0.9 0,0.497 0.4,0.9 0.9,0.9 z" /></g></g><g
       id="g256"><g
         clip-path="url(#clipPath262)"
         id="g258"><path
           id="path264"
           style="fill:#ffffff;fill-opacity:1;fill-rule:evenodd;stroke:none"
           d="m 137.1,149.04 c 0.5,0 0.9,-0.4 0.9,-0.9 0,-0.5 -0.4,-0.9 -0.9,-0.9 -0.5,0 -0.9,0.4 -0.9,0.9 0,0.5 0.4,0.9 0.9,0.9 z" /></g></g><g
       id="g266"><g
         clip-path="url(#clipPath272)"
         id="g268"><path
           id="path274"
           style="fill:none;stroke:#000000;stroke-width:0.47999999;stroke-linecap:butt;stroke-linejoin:miter;stroke-miterlimit:10;stroke-dasharray:none;stroke-opacity:1"
           d="m 137.1,149.04 c 0.5,0 0.9,-0.4 0.9,-0.9 0,-0.5 -0.4,-0.9 -0.9,-0.9 -0.5,0 -0.9,0.4 -0.9,0.9 0,0.5 0.4,0.9 0.9,0.9 z" /></g></g><path
       id="path276"
       style="fill:none;stroke:#000000;stroke-width:0.47999999;stroke-linecap:butt;stroke-linejoin:miter;stroke-miterlimit:10;stroke-dasharray:none;stroke-opacity:1"
       d="M 137.06,36.12 137.04,16.495" /><g
       id="g278"><g
         clip-path="url(#clipPath284)"
         id="g280"><path
           id="path286"
           style="fill:none;stroke:#000000;stroke-width:0.47999999;stroke-linecap:butt;stroke-linejoin:miter;stroke-miterlimit:10;stroke-dasharray:none;stroke-opacity:1"
           d="M 231.74,78.96 H 218.76" /></g></g><path
       id="path288"
       style="fill:#000000;fill-opacity:1;fill-rule:nonzero;stroke:none"
       d="M 125.18,19.196 V 30.56 h -1 V 19.196 Z m -0.5,11.364 3,-2 -3,6 -3,-6 z" /><path
       id="path290"
       style="fill:#000000;fill-opacity:1;fill-rule:nonzero;stroke:none"
       d="m 89.04,96.98 h 8.375 v -1 H 89.04 Z m 8.375,-0.5 -2,3 6.005,-3 -6.005,-3 z" /><g
       id="g292"><g
         clip-path="url(#clipPath298)"
         id="g294"><path
           id="path300"
           style="fill:#000000;fill-opacity:1;fill-rule:nonzero;stroke:none"
           d="m 121.66,153.24 v 10.04 h 1 v -10.04 z m 0.5,10.04 -3,-2 3,6 3,-6 z" /></g></g><g
       id="g302"><g
         clip-path="url(#clipPath308)"
         id="g304"><text
           id="text312"
           style="font-style:italic;font-variant:normal;font-weight:normal;font-size:11.03999996px;font-family:Calibri;-inkscape-font-specification:Calibri-Italic;writing-mode:lr-tb;fill:#000000;fill-opacity:1;fill-rule:nonzero;stroke:none"
           transform="matrix(1,0,0,-1,42.384,65.496)"><tspan
             id="tspan310"
             y="0"
             x="0">V</tspan></text>
</g></g><g
       id="g314"><g
         clip-path="url(#clipPath320)"
         id="g316"><text
           id="text324"
           style="font-style:italic;font-variant:normal;font-weight:normal;font-size:4.55999994px;font-family:Calibri;-inkscape-font-specification:Calibri-Italic;writing-mode:lr-tb;fill:#000000;fill-opacity:1;fill-rule:nonzero;stroke:none"
           transform="matrix(1,0,0,-1,48.624,65.496)"><tspan
             id="tspan322"
             y="0"
             x="0 2.52004">BB</tspan></text>
</g></g><g
       id="g326"><g
         clip-path="url(#clipPath332)"
         id="g328"><path
           id="path334"
           style="fill:#0d0d0d;fill-opacity:1;fill-rule:evenodd;stroke:none"
           d="m 195.93,57.84 v 60.66 h 3.63 l -7.26,7.26 -7.26,-7.26 h 3.63 V 57.84 Z" /></g></g><g
       id="g336"><g
         clip-path="url(#clipPath342)"
         id="g338"><path
           id="path344"
           style="fill:none;stroke:#000000;stroke-width:0.95999998;stroke-linecap:butt;stroke-linejoin:miter;stroke-miterlimit:10;stroke-dasharray:none;stroke-opacity:1"
           d="m 195.93,57.84 v 60.66 h 3.63 l -7.26,7.26 -7.26,-7.26 h 3.63 V 57.84 Z" /></g></g><path
       id="path346"
       style="fill:#0d0d0d;fill-opacity:1;fill-rule:evenodd;stroke:none"
       d="m 172.68,91.213 h 8.65 V 88.92 l 2.75,3 -2.75,3 v -2.292 h -8.65 z" /><path
       id="path348"
       style="fill:none;stroke:#000000;stroke-width:0.95999998;stroke-linecap:butt;stroke-linejoin:miter;stroke-miterlimit:10;stroke-dasharray:none;stroke-opacity:1"
       d="m 172.68,91.213 h 8.65 V 88.92 l 2.75,3 -2.75,3 v -2.292 h -8.65 z" /><g
       id="g350"><g
         clip-path="url(#clipPath356)"
         id="g352"><path
           id="path358"
           style="fill:none;stroke:#000000;stroke-width:0.47999999;stroke-linecap:butt;stroke-linejoin:miter;stroke-miterlimit:10;stroke-dasharray:none;stroke-opacity:1"
           d="m 189.72,96.54 c 0,-2.684 -2.61,-4.86 -5.82,-4.86" /></g></g><g
       id="g360"><g
         clip-path="url(#clipPath366)"
         id="g362"><text
           id="text370"
           style="font-variant:normal;font-weight:normal;font-size:8.03999996px;font-family:ArialMT;-inkscape-font-specification:ArialMT;writing-mode:lr-tb;fill:#000000;fill-opacity:1;fill-rule:nonzero;stroke:none"
           transform="matrix(1,0,0,-1,232.13,72.552)"><tspan
             id="tspan368"
             y="0"
             x="0">+</tspan></text>
</g></g><g
       id="g372"><g
         clip-path="url(#clipPath378)"
         id="g374"><text
           id="text382"
           style="font-variant:normal;font-weight:normal;font-size:8.03999996px;font-family:ArialMT;-inkscape-font-specification:ArialMT;writing-mode:lr-tb;fill:#000000;fill-opacity:1;fill-rule:nonzero;stroke:none"
           transform="matrix(1,0,0,-1,233.21,81.96)"><tspan
             id="tspan380"
             y="0"
             x="0">-</tspan></text>
</g></g><path
       id="path384"
       style="fill:none;stroke:#000000;stroke-width:0.47999999;stroke-linecap:butt;stroke-linejoin:miter;stroke-miterlimit:10;stroke-dasharray:none;stroke-opacity:1"
       d="M 137.16,169.56 V 149.14" /><g
       id="g386"><g
         clip-path="url(#clipPath392)"
         id="g388"><path
           id="path394"
           style="fill:none;stroke:#000000;stroke-width:1.55999994;stroke-linecap:butt;stroke-linejoin:miter;stroke-miterlimit:10;stroke-dasharray:none;stroke-opacity:1"
           d="m 53.46,59.139 4.968,0.081" /></g></g><path
       id="path396"
       style="fill:none;stroke:#000000;stroke-width:0.47999999;stroke-linecap:butt;stroke-linejoin:miter;stroke-miterlimit:10;stroke-dasharray:none;stroke-opacity:1"
       d="m 55.92,58.68 h 0.129 V 16.48 H 141.3" /><path
       id="path398"
       style="fill:none;stroke:#000000;stroke-width:0.47999999;stroke-linecap:butt;stroke-linejoin:miter;stroke-miterlimit:10;stroke-dasharray:none;stroke-opacity:1"
       d="M 110.07,92.04 H 56.052 V 61.525 H 56.04" /><g
       id="g400"><g
         clip-path="url(#clipPath406)"
         id="g402"><text
           id="text410"
           style="font-style:italic;font-variant:normal;font-weight:normal;font-size:11.06400013px;font-family:Calibri;-inkscape-font-specification:Calibri-Italic;writing-mode:lr-tb;fill:#000000;fill-opacity:1;fill-rule:nonzero;stroke:none"
           transform="matrix(1,0,0,-1,209.35,85.536)"><tspan
             id="tspan408"
             y="0"
             x="0">V</tspan></text>
</g></g><g
       id="g412"><g
         clip-path="url(#clipPath418)"
         id="g414"><text
           id="text422"
           style="font-style:italic;font-variant:normal;font-weight:normal;font-size:4.55999994px;font-family:Calibri;-inkscape-font-specification:Calibri-Italic;writing-mode:lr-tb;fill:#000000;fill-opacity:1;fill-rule:nonzero;stroke:none"
           transform="matrix(1,0,0,-1,215.59,85.536)"><tspan
             id="tspan420"
             y="0"
             x="0 2.2799799">EE</tspan></text>
</g></g></g></svg>