<?xml version="1.0" encoding="UTF-8" standalone="no"?>
<!-- Created with Inkscape (http://www.inkscape.org/) -->
<svg id="svg1" height="141.64" viewBox="0,0,234.31969,141.63513" width="234.32" xmlns="http://www.w3.org/2000/svg" xmlns:svg="http://www.w3.org/2000/svg">
 <g id="g1">
  <path id="path1" d="m0 0h175.738v106.227h-175.738z" fill="#fff" transform="scale(1.3333333)"/>
  <path id="path2" d="m9.672 53.496c0 .988-.801 1.785-1.785 1.785-.989 0-1.785-.797-1.785-1.785 0-.984.796-1.785 1.785-1.785.984 0 1.785.801 1.785 1.785z" fill="none" stroke="#000" stroke-width=".589" transform="scale(1.3333333)"/>
  <path id="path3" d="m9.902 53.496h47.446" fill="none" stroke="#000" stroke-width=".975" transform="scale(1.3333333)"/>
  <path id="path4" d="m74.074 10.129c0 .984-.797 1.785-1.785 1.785-.984 0-1.785-.801-1.785-1.785s.801-1.785 1.785-1.785c.988 0 1.785.801 1.785 1.785z" fill="none" stroke="#000" stroke-width=".589" transform="scale(1.3333333)"/>
  <path id="path5" d="m74.074 100.398c0 .985-.797 1.786-1.785 1.786-.984 0-1.785-.801-1.785-1.786 0-.988.801-1.785 1.785-1.785.988 0 1.785.797 1.785 1.785z" fill="none" stroke="#000" stroke-width=".589" transform="scale(1.3333333)"/>
  <path id="path6" d="m84 21.109.121-.586 1.02-.242 1.461-6.91-.911-.23.121-.598h3l-.121.598-1.031.23-1.465 6.91.926.242-.121.586z" fill="#008000" transform="scale(1.3333333)"/>
  <path id="path7" d="m88.438 23.59c-.461 0-.836-.133-1.122-.391-.285-.261-.429-.652-.429-1.172 0-.375.051-.726.148-1.058.106-.34.25-.637.438-.891.191-.254.422-.453.695-.601.27-.149.57-.227.902-.227.184 0 .364.02.539.055.184.039.348.086.5.148l-.195.57c-.105-.046-.23-.089-.375-.132-.141-.043-.293-.063-.461-.063-.297 0-.555.102-.781.305-.223.199-.395.461-.52.797-.125.332-.187.695-.187 1.09 0 .316.078.566.242.742.16.172.387.258.676.258.183 0 .355-.024.515-.071.168-.051.332-.113.493-.187v.578c-.145.07-.309.133-.493.18-.175.046-.371.07-.585.07z" fill="#008000" transform="scale(1.3333333)"/>
  <path id="path8" d="m79.871 12.898v12.321" fill="none" stroke="#008000" stroke-width=".801" transform="scale(1.3333333)"/>
  <path id="path9" d="m-21.031 81.809-5.25-1.93 5.25-1.93c-.84 1.137-.832 2.699 0 3.86z" fill="#008000" fill-rule="evenodd" stroke="#008000" stroke-linejoin="round" stroke-width=".3" transform="matrix(0 -1.3333333 1.3333333 0 0 0)"/>
  <path id="path10" d="m17.047 59.965h12.754" fill="none" stroke="#000080" stroke-width=".829" transform="scale(1.3333333)"/>
  <path id="path11" d="m-25.465-57.957-5.433-2 5.433-2c-.867 1.18-.863 2.797 0 4z" fill="#000080" fill-rule="evenodd" stroke="#000080" stroke-linejoin="round" stroke-width=".311" transform="scale(-1.3333333)"/>
  <path id="path12" d="m2.375 66.594.117-.59 1.02-.238 1.465-6.914-.911-.227.118-.602h3l-.118.602-1.031.227-1.465 6.914.922.238-.117.59z" fill="#000080" transform="scale(1.3333333)"/>
  <path id="path13" d="m5.207 68.992 1.176-5.566h1.445c.516 0 .918.097 1.207.301.297.203.445.531.445.976 0 .379-.113.688-.343.93-.227.234-.532.387-.91.457v.039c.253.07.464.195.636.383.172.187.258.437.258.75 0 .379-.094.699-.281.961-.18.254-.434.445-.754.574-.324.133-.691.195-1.102.195zm1.371-3.195h.914c.227 0 .438-.039.633-.109.191-.075.344-.184.457-.329.117-.152.172-.339.172-.57 0-.246-.078-.434-.231-.562-.156-.133-.418-.204-.781-.204h-.789zm-.551 2.601h.981c.441 0 .781-.097 1.023-.293.239-.199.36-.48.36-.843 0-.25-.082-.461-.243-.633-.164-.172-.437-.258-.82-.258h-.875z" fill="#000080" transform="scale(1.3333333)"/>
  <path id="path14" d="m5.855 39.293h2.446c1.066 0 1.871.16 2.426.48.55.321.828.868.828 1.645 0 .504-.141.922-.422 1.258-.278.328-.684.543-1.211.636v.063c.359.063.683.172.973.324.296.153.527.367.695.649.168.277.25.636.25 1.078 0 .777-.266 1.375-.801 1.801-.531.421-1.254.636-2.172.636h-3.012zm1.079 3.648h1.586c.726 0 1.226-.117 1.5-.347.277-.239.418-.594.418-1.055 0-.473-.168-.809-.504-1.008-.329-.211-.856-.312-1.582-.312h-1.418zm0 .899v3.109h1.726c.762 0 1.289-.148 1.586-.445.297-.293.445-.684.445-1.164 0-.445-.156-.805-.468-1.078-.305-.282-.852-.422-1.645-.422z" transform="scale(1.3333333)"/>
  <path id="path15" d="m65.59 4.895c-.922 0-1.645.304-2.172.921-.527.618-.793 1.461-.793 2.532 0 1.066.246 1.91.73 2.531.497.617 1.239.926 2.223.926.367 0 .719-.032 1.055-.098.336-.062.668-.141.996-.238v.937c-.32.117-.652.207-.996.262-.336.059-.738.086-1.211.086-.871 0-1.602-.18-2.184-.543-.586-.359-1.023-.871-1.32-1.535-.289-.664-.434-1.442-.434-2.34 0-.863.157-1.625.469-2.277.32-.664.789-1.184 1.402-1.551.618-.375 1.368-.563 2.247-.563.902 0 1.691.168 2.363.504l-.434.91c-.261-.117-.558-.226-.886-.324-.321-.094-.672-.14-1.055-.14z" transform="scale(1.3333333)"/>
  <path id="path16" d="m66.328 101.418h-4.789v-8.57h4.789v.949h-3.711v2.676h3.492v.937h-3.492v3.059h3.711z" transform="scale(1.3333333)"/>
  <path id="path17" d="m84 90.434.121-.59 1.02-.239 1.461-6.914-.911-.226.121-.602h3l-.121.602-1.031.226-1.465 6.914.926.239-.121.59z" fill="#f00" transform="scale(1.3333333)"/>
  <path id="path18" d="m86.832 92.832 1.18-5.57h2.82l-.129.617h-2.133l-.363 1.738h1.988l-.117.61h-1.996l-.43 1.988h2.137l-.133.617z" fill="#f00" transform="scale(1.3333333)"/>
  <path id="path19" d="m79.871 82.223v12.32" fill="none" stroke="#f00" stroke-width=".801" transform="scale(1.3333333)"/>
  <path id="path20" d="m-90.352 81.809-5.25-1.93 5.25-1.93c-.839 1.137-.836 2.699 0 3.86z" fill="#f00" fill-rule="evenodd" stroke="#f00" stroke-linejoin="round" stroke-width=".3" transform="matrix(0 -1.3333333 1.3333333 0 0 0)"/>
  <path id="path21" d="m93.816 53.422c0 15.48-12.55 28.031-28.035 28.031-15.48 0-28.031-12.551-28.031-28.031 0-15.484 12.551-28.031 28.031-28.031 15.485 0 28.035 12.547 28.035 28.031z" fill="none" stroke="#000" stroke-linecap="round" stroke-linejoin="round" stroke-width=".975" transform="scale(1.3333333)"/>
  <path id="path22" d="m57.07 38.543v29.887" fill="none" stroke="#000" stroke-linecap="round" stroke-width=".975" transform="scale(1.3333333)"/>
  <path id="path23" d="m57.07 45.988 15-15v-18.75" fill="none" stroke="#000" stroke-linecap="round" stroke-linejoin="round" stroke-width=".975" transform="scale(1.3333333)"/>
  <path id="path24" d="m57.348 61.004 14.984 14.984v22.5" fill="none" stroke="#000" stroke-linecap="round" stroke-linejoin="bevel" stroke-width=".975" transform="scale(1.3333333)"/>
  <path id="path25" d="m57.348 61.004 14.367 14.367" fill="none" stroke="#000" stroke-linecap="round" stroke-linejoin="bevel" stroke-width=".975" transform="scale(1.3333333)"/>
  <path id="path26" d="m-70.785-1.828 1.379-1.379-4.828 1.379 4.828 1.379z" fill-rule="evenodd" stroke="#000" stroke-width=".368" transform="matrix(-1.3333333 -1.3333333 1.3333333 -1.3333333 0 0)"/>
  <path id="path27" d="m-57.203-126.34v7.125" fill="none" stroke="#000" stroke-width="1.035" transform="matrix(0 -1.3333333 -1.3333333 0 0 0)"/>
  <path id="path28" d="m-55.742-117.754c0 .805-.656 1.461-1.461 1.461-.809 0-1.461-.656-1.461-1.461 0-.808.652-1.461 1.461-1.461.805 0 1.461.653 1.461 1.461z" fill="none" stroke="#000" stroke-linecap="square" stroke-width="1.035" transform="matrix(0 -1.3333333 -1.3333333 0 0 0)"/>
  <path id="path29" d="m-144.598 91.914v7.125" fill="none" stroke="#000" stroke-width="1.035" transform="scale(-1.3333333 1.3333333)"/>
  <path id="path30" d="m-143.141 100.5c0 .805-.652 1.457-1.457 1.457-.808 0-1.461-.652-1.461-1.457 0-.809.653-1.461 1.461-1.461.805 0 1.457.652 1.457 1.461z" fill="none" stroke="#000" stroke-linecap="square" stroke-width="1.035" transform="scale(-1.3333333 1.3333333)"/>
  <path id="path31" d="m144.602-18.613v7.125" fill="none" stroke="#000" stroke-width="1.035" transform="scale(1.3333333 -1.3333333)"/>
  <path id="path32" d="m146.059-10.027c0 .808-.653 1.461-1.457 1.461-.809 0-1.461-.653-1.461-1.461 0-.805.652-1.461 1.461-1.461.804 0 1.457.656 1.457 1.461z" fill="none" stroke="#000" stroke-linecap="square" stroke-width="1.035" transform="scale(1.3333333 -1.3333333)"/>
  <path id="path33" d="m123.965 65.227c2.586 0 2.07 2.585 2.586 2.585v-21.218c-.516 0 0 2.07-2.586 2.07z" transform="scale(1.3333333)"/>
  <path id="path34" d="m126.551 45.559h36.098v22.254h-36.098z" fill="#32cd32" fill-opacity=".498" stroke="#000" stroke-linecap="square" stroke-width=".685" transform="scale(1.3333333)"/>
  <path id="path35" d="m126.551 67.812h36.098v24.324h-36.098z" fill="#118aef" fill-opacity=".498" stroke="#000" stroke-linecap="square" stroke-width=".685" transform="scale(1.3333333)"/>
  <path id="path36" d="m126.555 45.457 36.093.102v-25.875h-36.097z" fill="#78a9d3" fill-opacity=".498" stroke="#000" stroke-linecap="round" stroke-width=".685" transform="scale(1.3333333)"/>
  <path id="path37" d="m158.621 94.723c0-2.586 2.586-2.071 2.586-2.586h-33.215c0 .515 2.07 0 2.07 2.586z" transform="scale(1.3333333)"/>
  <path id="path38" d="m158.621 17.098c0 2.586 2.586 2.07 2.586 2.586h-33.215c0-.516 2.07 0 2.07-2.586z" transform="scale(1.3333333)"/>
  <path id="path39" d="m144.984 29.383c.766 0 1.348.187 1.739.562.394.375.589.977.589 1.801v4.188h-1.046v-4.118c0-1.031-.477-1.546-1.438-1.546-.711 0-1.203.199-1.476.601-.274.399-.407.977-.407 1.727v3.336h-1.058v-6.434h.851l.157.879h.062c.207-.336.496-.586.863-.746.368-.168.754-.25 1.164-.25z" transform="scale(1.3333333)"/>
  <path id="path40" d="m144.809 53.445c.793 0 1.429.278 1.91.828.488.551.73 1.383.73 2.497 0 1.093-.242 1.925-.73 2.496-.481.566-1.121.851-1.922.851-.496 0-.906-.094-1.235-.277-.32-.184-.574-.402-.757-.66h-.071c.008.136.02.308.036.515.023.211.035.391.035.543v2.641h-1.055v-9.313h.863l.145.875h.047c.191-.281.445-.515.757-.707.313-.195.727-.289 1.247-.289zm-.192.887c-.656 0-1.121.184-1.39.555-.274.367-.415.925-.422 1.679v.204c0 .792.129 1.402.386 1.835.262.422.747.637 1.45.637.386 0 .703-.105.961-.312.257-.215.445-.512.562-.891.129-.375.195-.801.195-1.281 0-.738-.144-1.324-.433-1.766-.281-.437-.715-.66-1.309-.66z" transform="scale(1.3333333)"/>
  <path id="path41" d="m144.984 76.734c.766 0 1.348.188 1.739.563.394.375.589.976.589 1.801v4.187h-1.046v-4.117c0-1.031-.477-1.547-1.438-1.547-.711 0-1.203.199-1.476.598-.274.402-.407.976-.407 1.73v3.336h-1.058v-6.433h.851l.157.878h.062c.207-.335.496-.585.863-.746.368-.168.754-.25 1.164-.25z" transform="scale(1.3333333)"/>
 </g>
</svg>
